# Blender v2.82 (sub 7) OBJ File: ''
# www.blender.org
o Sphere
v 0.000000 -0.000000 -1.000000
v 0.000000 -0.707107 -0.707107
v 0.707107 0.707107 0.000000
v 1.000000 -0.000000 0.000000
v 0.707107 -0.707107 0.000000
v -0.000000 1.000000 0.000000
v -0.000000 0.707107 0.707107
v -0.000000 -0.000000 1.000000
v -0.000000 -0.707107 0.707107
v 0.000000 -1.000000 0.000000
v -0.707107 0.707106 -0.000000
v -1.000000 -0.000000 -0.000000
v -0.707107 -0.707107 -0.000000
v 0.000000 0.707106 -0.707107
vt 0.625000 0.000000
vt 0.750000 0.250000
vt 0.500000 0.250000
vt 0.750000 0.750000
vt 0.500000 0.500000
vt 0.750000 0.500000
vt 0.625000 1.000000
vt 0.500000 0.750000
vt 0.250000 0.250000
vt 0.375000 1.000000
vt 0.250000 0.750000
vt 0.375000 0.000000
vt 0.250000 0.500000
vt 0.000000 0.500000
vt 0.000000 0.250000
vt 0.125000 1.000000
vt 0.000000 0.750000
vt 0.125000 0.000000
vt 0.875000 0.000000
vt 1.000000 0.250000
vt 1.000000 0.500000
vt 1.000000 0.750000
vt 0.875000 1.000000
vn 0.3574 -0.8629 -0.3574
vn 0.6786 0.2811 -0.6786
vn 0.6786 -0.2811 -0.6786
vn 0.3574 0.8629 -0.3574
vn 0.6786 -0.2811 0.6786
vn 0.3574 0.8629 0.3574
vn 0.3574 -0.8629 0.3574
vn 0.6786 0.2811 0.6786
vn -0.6786 0.2811 0.6786
vn -0.6786 -0.2811 0.6786
vn -0.3574 0.8629 0.3574
vn -0.3574 -0.8629 0.3574
vn -0.3574 -0.8629 -0.3574
vn -0.6786 0.2811 -0.6786
vn -0.6786 -0.2811 -0.6786
vn -0.3574 0.8629 -0.3574
s off
f 10/1/1 2/2/1 5/3/1
f 14/4/2 4/5/2 1/6/2
f 1/6/3 5/3/3 2/2/3
f 14/4/4 6/7/4 3/8/4
f 4/5/5 9/9/5 5/3/5
f 3/8/6 6/10/6 7/11/6
f 10/12/7 5/3/7 9/9/7
f 3/8/8 8/13/8 4/5/8
f 7/11/9 12/14/9 8/13/9
f 8/13/10 13/15/10 9/9/10
f 7/11/11 6/16/11 11/17/11
f 10/18/12 9/9/12 13/15/12
f 10/19/13 13/20/13 2/2/13
f 12/21/14 14/4/14 1/6/14
f 12/21/15 2/2/15 13/20/15
f 11/22/16 6/23/16 14/4/16
f 14/4/2 3/8/2 4/5/2
f 1/6/3 4/5/3 5/3/3
f 4/5/5 8/13/5 9/9/5
f 3/8/8 7/11/8 8/13/8
f 7/11/9 11/17/9 12/14/9
f 8/13/10 12/14/10 13/15/10
f 12/21/14 11/22/14 14/4/14
f 12/21/15 1/6/15 2/2/15
